<svg width="11" height="12" viewBox="0 0 11 12" fill="none" xmlns="http://www.w3.org/2000/svg">
<g id="Group 3">
<path id="Vector" d="M5.49992 7.87607C6.9507 7.87607 8.1268 6.69997 8.1268 5.24919C8.1268 3.79841 6.9507 2.62231 5.49992 2.62231C4.04914 2.62231 2.87305 3.79841 2.87305 5.24919C2.87305 6.69997 4.04914 7.87607 5.49992 7.87607Z" stroke="#F4514F" stroke-miterlimit="10"/>
<path id="Vector_2" d="M5.5 9.74902C7.98528 9.74902 10 7.7343 10 5.24902C10 2.76374 7.98528 0.749023 5.5 0.749023C3.01472 0.749023 1 2.76374 1 5.24902C1 7.7343 3.01472 9.74902 5.5 9.74902Z" stroke="#F4514F" stroke-miterlimit="10"/>
<path id="Vector_3" d="M5.5 5.24902V11.2509" stroke="black" stroke-width="2.8" stroke-miterlimit="10"/>
<path id="Vector_4" d="M5.5 5.24902V11.2509" stroke="#F4514F" stroke-miterlimit="10"/>
<path id="Vector_5" d="M5.50047 5.65963C5.27547 5.65963 5.08984 5.474 5.08984 5.249C5.08984 5.024 5.27547 4.83838 5.50047 4.83838C5.72547 4.83838 5.91109 5.024 5.91109 5.249C5.91109 5.474 5.72547 5.65963 5.50047 5.65963Z" fill="black"/>
<path id="Vector_6" d="M5.50027 4.38831C5.02777 4.38831 4.63965 4.77081 4.63965 5.24893C4.63965 5.72706 5.02215 6.10956 5.50027 6.10956C5.9784 6.10956 6.3609 5.72706 6.3609 5.24893C6.3609 4.77081 5.9784 4.38831 5.50027 4.38831Z" fill="#F4514F"/>
</g>
</svg>
