<svg width="32" height="33" viewBox="0 0 32 33" fill="none" xmlns="http://www.w3.org/2000/svg">
<g id="Frame">
<path id="Subtract" d="M6.5 21.9785H5.6H6.5ZM23.9786 12.2774L23.4209 12.9838L23.9786 12.2774ZM6.5 15.4169H7.4H6.5ZM24.6 15.4169V21.9785H26.4V15.4169H24.6ZM7.4 21.9785V15.4169H5.6V21.9785H7.4ZM8.5791 12.9838L14.0791 8.64169L12.9637 7.2289L7.46374 11.571L8.5791 12.9838ZM17.9209 8.64169L23.4209 12.9838L24.5363 11.571L19.0363 7.2289L17.9209 8.64169ZM12.1 21.9785V24.9785H13.9V21.9785H12.1ZM19.9 24.9785V21.9785H18.1V24.9785H19.9ZM17 19.0785H15V20.8785H17V19.0785ZM12 25.0785H10.5V26.8785H12V25.0785ZM21.5 25.0785H20V26.8785H21.5V25.0785ZM19.9 21.9785C19.9 20.3769 18.6016 19.0785 17 19.0785V20.8785C17.6075 20.8785 18.1 21.371 18.1 21.9785H19.9ZM12.1 24.9785C12.1 25.0338 12.0552 25.0785 12 25.0785V26.8785C13.0493 26.8785 13.9 26.0279 13.9 24.9785H12.1ZM18.1 24.9785C18.1 26.0279 18.9507 26.8785 20 26.8785V25.0785C19.9448 25.0785 19.9 25.0338 19.9 24.9785H18.1ZM13.9 21.9785C13.9 21.371 14.3925 20.8785 15 20.8785V19.0785C13.3984 19.0785 12.1 20.3769 12.1 21.9785H13.9ZM14.0791 8.64169C15.2054 7.75254 16.7946 7.75254 17.9209 8.64169L19.0363 7.2289C17.256 5.82347 14.744 5.82347 12.9637 7.2289L14.0791 8.64169ZM5.6 21.9785C5.6 24.6847 7.7938 26.8785 10.5 26.8785V25.0785C8.78792 25.0785 7.4 23.6906 7.4 21.9785H5.6ZM24.6 21.9785C24.6 23.6906 23.2121 25.0785 21.5 25.0785V26.8785C24.2062 26.8785 26.4 24.6847 26.4 21.9785H24.6ZM26.4 15.4169C26.4 13.9173 25.7133 12.5002 24.5363 11.571L23.4209 12.9838C24.1656 13.5717 24.6 14.4682 24.6 15.4169H26.4ZM7.4 15.4169C7.4 14.4682 7.83445 13.5717 8.5791 12.9838L7.46374 11.571C6.28671 12.5002 5.6 13.9173 5.6 15.4169H7.4Z" fill="#0B0B0B"/>
</g>
</svg>
