<svg width="26" height="26" viewBox="0 0 26 26" fill="none" xmlns="http://www.w3.org/2000/svg">
<g id="Frame" clip-path="url(#clip0_806_5644)">
<path id="Subtract" fill-rule="evenodd" clip-rule="evenodd" d="M20.6532 3.39423C23.6329 3.39997 25.4252 6.70094 23.8071 9.20306L15.2101 22.4973C13.3911 25.3102 9.0801 24.5248 8.36994 21.2512L6.93192 14.6224C6.92971 14.6122 6.92462 14.6028 6.91726 14.5954L2.1411 9.77908C-0.217625 7.40053 1.47166 3.35725 4.82144 3.36371L20.6532 3.39423ZM22.2957 8.22562C23.14 6.91986 22.2047 5.19722 20.6497 5.19423L4.81797 5.1637C3.06985 5.16033 2.18829 7.27036 3.41921 8.51163L8.19537 13.3279C8.44415 13.5788 8.6161 13.8955 8.69101 14.2408L10.129 20.8696C10.4996 22.5779 12.7494 22.9878 13.6986 21.5199L22.2957 8.22562Z" fill="#0B0B0B"/>
<path id="Line" d="M8 14.0001L15.8568 9.76056" stroke="#0B0B0B" stroke-width="2" stroke-linecap="round"/>
</g>
<defs>
<clipPath id="clip0_806_5644">
<rect width="25" height="25" fill="white" transform="translate(0.25 0.5)"/>
</clipPath>
</defs>
</svg>
