<svg width="17" height="18" viewBox="0 0 17 18" fill="none" xmlns="http://www.w3.org/2000/svg">
<path id="Union" fill-rule="evenodd" clip-rule="evenodd" d="M8.5 0.162598C7.67157 0.162598 7 0.834171 7 1.6626V7.1626H1.5C0.671573 7.1626 0 7.83417 0 8.6626C0 9.49102 0.671573 10.1626 1.5 10.1626H7V15.6626C7 16.491 7.67157 17.1626 8.5 17.1626C9.32843 17.1626 10 16.491 10 15.6626V10.1626H15.5C16.3284 10.1626 17 9.49102 17 8.6626C17 7.83417 16.3284 7.1626 15.5 7.1626H10V1.6626C10 0.834171 9.32843 0.162598 8.5 0.162598Z" fill="#0B0B0B"/>
</svg>
